<svg width="32" height="32" viewBox="0 0 32 32" fill="none" xmlns="http://www.w3.org/2000/svg">
<path d="M6.82001 20.575V24.409C7.9912 25.8452 9.46765 27.0024 11.1421 27.7966C12.8165 28.5907 14.6468 29.0018 16.5 29C20.824 29 24.636 26.804 26.88 23.467V18.093C26.112 23.136 21.757 27 16.5 27C12.146 27 8.41101 24.35 6.82001 20.575ZM25.03 10.376V8.65401C25.0271 8.27423 25.0893 7.89675 25.214 7.53801C22.8831 5.26555 19.7553 3.99564 16.5 4.00001C13.5869 3.99569 10.7644 5.01305 8.52401 6.87501L8.52901 6.93601L8.53001 6.96301V9.66301C9.5148 8.51271 10.7373 7.58958 12.1132 6.95721C13.4891 6.32484 14.9857 5.99828 16.5 6.00001C20.014 6.00001 23.124 7.72601 25.03 10.376Z" fill="black"/>
<path d="M24.5 16.5C24.5 18.6217 23.6571 20.6566 22.1569 22.1568C20.6566 23.6571 18.6217 24.5 16.5 24.5C14.3783 24.5 12.3434 23.6571 10.8431 22.1568C9.34285 20.6566 8.5 18.6217 8.5 16.5C8.5 14.3783 9.34285 12.3434 10.8431 10.8431C12.3434 9.34284 14.3783 8.49999 16.5 8.49999C18.6217 8.49999 20.6566 9.34284 22.1569 10.8431C23.6571 12.3434 24.5 14.3783 24.5 16.5ZM16.5 23.5C17.4193 23.5 18.3295 23.3189 19.1788 22.9671C20.0281 22.6154 20.7997 22.0997 21.4497 21.4497C22.0998 20.7997 22.6154 20.0281 22.9672 19.1788C23.3189 18.3295 23.5 17.4192 23.5 16.5C23.5 15.5807 23.3189 14.6705 22.9672 13.8212C22.6154 12.9719 22.0998 12.2003 21.4497 11.5502C20.7997 10.9002 20.0281 10.3846 19.1788 10.0328C18.3295 9.68105 17.4193 9.49999 16.5 9.49999C14.6435 9.49999 12.863 10.2375 11.5503 11.5502C10.2375 12.863 9.5 14.6435 9.5 16.5C9.5 18.3565 10.2375 20.137 11.5503 21.4497C12.863 22.7625 14.6435 23.5 16.5 23.5ZM29.99 7.93999C29.99 7.03999 29.26 6.30999 28.36 6.30999C27.06 6.30999 26.02 7.35999 26.03 8.64999V14.2C26.03 15.453 26.756 16.575 27.88 17.083V25.7C27.88 26.22 28.3 26.64 28.82 26.64H29.05C29.57 26.64 29.99 26.22 29.99 25.7V7.93999ZM6.82 6.30999C6.63965 6.30999 6.46669 6.38163 6.33917 6.50916C6.21164 6.63668 6.14 6.80964 6.14 6.98999V9.67999C6.14 9.87999 5.98 10.03 5.79 10.03C5.59 10.03 5.44 9.86999 5.44 9.67999V7.01999C5.44 6.64999 5.15 6.31999 4.78 6.30999C4.39 6.29999 4.07 6.60999 4.07 6.98999V9.67999C4.07 9.87999 3.91 10.03 3.72 10.03C3.52 10.03 3.37 9.86999 3.37 9.67999V7.01999C3.37 6.64999 3.08 6.31999 2.71 6.30999C2.32 6.29999 2 6.60999 2 6.98999V11.57C2 12.472 2.437 13.277 3.109 13.779C3.71 14.118 3.71 15.67 3.71 15.67V25.69C3.71 26.21 4.13 26.63 4.65 26.63H4.88C5.4 26.63 5.82 26.21 5.82 25.69V15.67C5.82 15.67 5.82 14.179 6.421 13.779C6.76501 13.5225 7.0444 13.1892 7.23693 12.8057C7.42945 12.4222 7.52981 11.9991 7.53 11.57V6.98999C7.51987 6.80776 7.44093 6.63619 7.30912 6.50995C7.17732 6.38371 7.00249 6.31224 6.82 6.30999Z" fill="black"/>
</svg>
