<?xml version="1.0" encoding="utf-8"?>
<!-- Generator: Adobe Illustrator 27.0.0, SVG Export Plug-In . SVG Version: 6.00 Build 0)  -->
<svg version="1.1" id="Layer_1" xmlns="http://www.w3.org/2000/svg" xmlns:xlink="http://www.w3.org/1999/xlink" x="0px" y="0px"
	 viewBox="0 0 1024 1024" style="enable-background:new 0 0 1024 1024;" xml:space="preserve">
<style type="text/css">
	.st0{fill:#046938;}
	.st1{fill:#056938;}
	.st2{fill:#FFFFFF;}
</style>
<g id="jpkMBa.tif">
	<g>
		<path class="st0" d="M1022.9,407.7c0,3.9,0,7.9,0,11.8c-3.6,14.9-12.5,22.2-27.9,22.3c-29.5,0.1-59.1,0.2-88.6-0.1
			c-5,0-6.4,1-6.4,6.3c0.2,54.4,0.4,108.9,0,163.3c-0.4,55.3-16.9,105.7-47.6,151.5c-44.3,66.2-106.3,105-184.1,119.4
			c-14.4,2.7-29.1,3.8-43.8,3.8c-83.4,0-166.8,0.9-250.1-0.2C282,884.4,207.3,846,152.4,771.9c-35.8-48.4-54.2-103.7-53.9-164.6
			c0-6,0.1-12-0.1-17.9c-0.1-2.9,0.8-3.6,3.6-2.9c34.8,8,70.2,10.1,105.7,9.8c47.7-0.5,93.6-11.2,138.4-26.8
			c89.8-31.2,171.6-77.1,244.8-137.9c15.3-12.7,29.9-26.5,43.6-41.2c2.5-2.7,5.1-4,9-4c78.4,0.1,156.7,0.1,235.1,0.1
			c38.8,0,77.6-0.1,116.3,0C1009.7,386.5,1019.6,394.2,1022.9,407.7z"/>
		<path class="st0" d="M1.1,435.7c0-13.2,0-26.4,0-39.6c0-46.5,20.1-85,47.5-120.8c38.3-50.1,86.9-88.2,139.5-121.7
			c41.7-26.5,86.1-47.6,132-65.9c33.4-13.3,67.6-22.8,103-27.9c33.9-4.9,68-5.9,102.2-3.2c23,1.8,45.6,5.5,67,14.2
			c40.3,16.2,68.5,44.2,80.7,86.5c11.1,38.4,11.9,77.4,1.9,116c-7.9,30.6-26.8,55.7-47.2,79.3c-21.2,24.7-45.5,46.1-70.8,66.5
			c-73.4,59.2-155.6,101.5-245.5,129.4c-52.1,16.2-105.3,20.4-159.5,14.9c-26.7-2.7-53-7.1-78.1-17.4C31.3,528.4,8.7,496,2.5,451.2
			C1.8,446.1,1.6,440.9,1.1,435.7z"/>
		<path class="st0" d="M1022.9,108.8c0,4.7,0,9.4,0,14.2c-3.8,21.2-18.1,32.6-37.1,39.5c19.4,21.9,14.8,45.8,3,60.4
			c-4.8,5.9-10.6,10.7-17.5,14c-2.4,1.1-2.9,2.1-1.9,4.7c11.8,29.3-8.4,60.2-41.7,65.4c-17.9,2.8-34-1.4-48.1-12.9
			c-1.5-1.2-2.2-1.8-4.1-0.2c-26.9,23.1-43.9,27.4-76.9,19.6c-5.8,25.7-21.5,39-44.1,37.5c-18.5-1.3-34.5-17.1-36.5-35.3
			c-1.9-17.4,7.1-39.7,35.5-45.2c-6.5-18.9-6.9-37.8,0.9-56.5c5.3-12.7,13.7-23.1,25-31.2c1.9-1.4,3.3-2.1,0.9-4.6
			c-21.2-22-15.8-54.7,9.8-71c0.8-0.5,1.5-1.1,2.7-2c-9.1-7-14.9-15.7-17.8-26.4c-6.2-23.1,6.6-47.1,30.9-56.3
			c20-7.6,39.4-5.7,57.2,6.8c3.4,2.4,4.1,1.6,6.1-1.5c13.1-20.9,32.9-28.8,56.5-26c21.8,2.6,38.1,13.9,45.4,35.7
			c3.2,9.5,2,18.9-0.9,28.3C1001.1,67.6,1018.8,86.2,1022.9,108.8z"/>
		<path class="st0" d="M499.1,1022.7c-18.3,0-36.6,0-54.9,0c-8.9,0-15.2-5.7-15.3-13.7c0-8,6.4-14,15.2-14c36.8,0,73.6,0,110.4,0
			c8.9,0,15.2,5.9,15.2,13.9c0,8-6.3,13.8-15.1,13.8C536.1,1022.8,517.6,1022.7,499.1,1022.7z"/>
		<path class="st1" d="M559.5,979.7c-8.7,0-13.9-8.4-10.4-15.6c0.7-1.3,1.6-2.6,2.7-3.7c11.6-12,23.1-24,34.8-36
			c5.7-5.8,11.9-6.4,16.7-1.9c4.8,4.4,5,11.9-0.5,17.6c-12,12.5-24.4,24.6-36.7,36.7C564.1,978.8,561.5,979.7,559.5,979.7z"/>
		<path class="st1" d="M446.1,967.3c-0.2,6.3-2.3,9.6-6.7,11.5c-4.9,2.1-9,0.6-12.6-2.9c-11.6-11.5-23.1-23.2-34.7-34.6
			c-1.9-1.8-2.9-4.1-3.9-6.3c-2.1-5-1-9.5,3.2-12.9c4-3.3,9.9-3.5,13.7,0.4c13,13,25.7,26.3,38.5,39.6
			C445.4,963.8,446.2,966.3,446.1,967.3z"/>
		<path class="st1" d="M487.7,941.7c0-8.5-0.1-17,0-25.4c0.1-7.2,4.2-11.8,10.6-11.9c6.7-0.1,11.2,4.5,11.2,11.9
			c0.1,17.2,0.1,34.3,0,51.5c0,7.2-4.9,12.2-11.2,12c-6.2-0.2-10.5-5-10.6-12C487.6,959,487.7,950.4,487.7,941.7z"/>
		<path class="st2" d="M346.8,193.5c-3,8,1.7,15.7,3,23.9c3.6,21.8-3.1,41-17.3,57.1c-20.1,22.8-45.3,34.8-76.3,31.4
			c-12.6-1.4-23.6-6.6-32.8-15.5c-1.6-1.6-3.1-3.4-5.5-4.1c-40.4-10.9-55.6-54.2-40.2-90.9c16.6-39.6,62-68.6,104.9-66.7
			c33,1.4,57.7,22.4,63.3,53.6C346.5,185.7,346.5,189.2,346.8,193.5z"/>
		<path class="st0" d="M241.5,258.6c-17.5,1.2-35.6-12.2-38.1-25.1c-1.7-8.8-0.9-17.2,2.3-25.5c11.5-29.4,47.3-51.3,78.6-48.2
			c23.6,2.3,36.7,21.3,29.7,44c-7.9,25.6-26.9,40.4-50.9,49.9C255.9,256.6,248.6,259.3,241.5,258.6z"/>
	</g>
</g>
</svg>
