<?xml version="1.0" encoding="UTF-8"?>
<svg id="uuid-1425ffa1-2a9e-4ef0-914c-962e26e8d398" data-name="Layer 1" xmlns="http://www.w3.org/2000/svg" viewBox="0 0 113.1 113.29">
  <path d="M24.91,20.63c10.86-9.41,23.26-13.66,37.4-12.26,14.14,1.41,25.42,8.11,34.23,19.44,.31-2.07,.56-3.95,.88-5.81,1.08-6.16,2.48-12.23,5.69-17.7,.55-.93,1.11-1.91,1.89-2.63,.76-.7,1.74-1.34,2.73-1.56,2.24-.5,3.59,.74,3.59,3.04,0,17.74-.07,35.48,.04,53.22,.05,7.67,.44,15.33,.72,23,.25,7.03,.54,14.06,.81,21.09,.08,2.17,.2,4.34,.22,6.51,.03,3.77-2.61,6.38-6.33,6.34-3.71-.04-6.31-2.6-6.2-6.34,.2-7.11,.54-14.21,.76-21.31,.09-2.84,.01-5.68,.01-8.11-8.04,15.69-20.95,25.53-39.17,27.29-18.24,1.76-32.85-5.34-44.15-19.79,0,.38,0,.65,0,.92,.26,6.95,.58,13.91,.75,20.86,.12,5.11-5.12,8.09-9.58,5.55-2-1.14-3-2.93-2.95-5.19,.12-5.16,.33-10.32,.52-15.48,.26-6.88,.52-13.76,.82-20.64,.33-7.59,.7-15.17,1.05-22.76,.08-1.64,.18-3.29,.26-4.93,.05-.94-.24-1.71-1.21-2.05C2.17,39.38,.08,35.01,0,29.63c-.07-5.94,.3-11.89,.49-17.84,.09-2.88,.24-5.76,.34-8.64C.91,1.31,1.97,.05,3.52,.03c1.58-.02,2.65,1.16,2.73,3.05,.3,6.88,.59,13.76,.87,20.63,.03,.68,.13,1.42,.93,1.4,.78-.02,.86-.76,.89-1.44,.28-6.88,.57-13.76,.87-20.63C9.89,1.18,11,0,12.58,.03c1.52,.04,2.56,1.26,2.63,3.04,.29,6.92,.57,13.83,.92,20.74,.02,.46,.56,.89,.86,1.33,.3-.46,.84-.91,.86-1.38,.22-3.96,.35-7.92,.51-11.89,.12-2.99,.23-5.98,.4-8.97,.1-1.79,1.25-2.93,2.79-2.88,1.5,.05,2.56,1.31,2.63,3.07,.21,5.61,.43,11.22,.65,16.82,0,.18,.04,.36,.07,.7Zm-7.89,39.41c.3,7.8,.5,13.86,.8,19.91,.04,.87,.38,1.85,.88,2.56,11.34,15.93,26.79,23.02,46.13,20.08,17.28-2.63,29.19-12.7,35.98-28.79,.47-1.12,1.01-2.32,1.06-3.51,.24-5.87,.36-11.74,.46-17.61,.06-3.74-.01-3.77-3.75-4.01-2.6-.16-3.56-1.15-3.4-3.79,.26-4.37,.59-8.73,.98-13.09,.07-.82-.08-1.43-.55-2.05-11.01-14.67-25.61-21.32-43.9-19.4-10.07,1.05-18.73,5.35-26.11,12.25-.37,.34-.59,1-.61,1.53-.1,2.61,.11,5.25-.19,7.83-.53,4.53-2.68,7.97-7.35,9.32-1.21,.35-1.4,1.2-1.34,2.25,.33,6.09,.66,12.18,.9,16.52Zm-1.9-.79c-.27-5.33-.57-10.56-.79-15.79-.1-2.36,.63-3.35,2.87-4.04,2.64-.82,4.33-2.57,5.21-5.14,.86-2.52,.95-5.12,.83-7.75-.16-3.4-.27-6.8-.39-10.2-.16-4.37-.3-8.75-.52-13.12-.02-.47-.57-.91-.87-1.36-.29,.45-.82,.89-.84,1.35-.35,6.87-.63,13.75-.91,20.63-.08,1.83-1.13,3.11-2.67,3.13-1.58,.03-2.66-1.13-2.74-3.03-.24-5.31-.44-10.61-.67-15.92-.07-1.68-.09-3.37-.25-5.04-.04-.4-.57-.75-.87-1.12-.29,.38-.62,.73-.87,1.14-.1,.17-.02,.44-.03,.66-.29,6.88-.58,13.75-.89,20.63-.07,1.56-1.28,2.71-2.74,2.69-1.4-.03-2.56-1.18-2.62-2.69-.31-6.95-.6-13.9-.89-20.85-.03-.7-.03-1.53-.9-1.53-.84,0-.92,.83-.92,1.53,0,.15,0,.3,0,.45-.2,5.42-.44,10.84-.59,16.26-.1,3.7-.32,7.42-.02,11.09,.31,3.94,2.27,6.97,6.26,8.35,1.67,.58,2.48,1.81,2.42,3.63-.07,2.32-.22,4.63-.33,6.95-.15,3.01-.31,6.03-.47,9.1h5.22Zm94.41,.04c0-.39,0-.64,0-.9,0-18.33,0-36.66,0-55,0-1.5-.54-1.9-1.96-1.37-.46,.17-.96,.49-1.24,.88-.86,1.21-1.74,2.44-2.42,3.76-2.4,4.62-3.69,9.62-4.46,14.72-.85,5.65-1.39,11.34-2.01,17.02-.24,2.19-.35,4.4-.48,6.6-.09,1.41,.21,1.7,1.61,1.78,.75,.04,1.5,.1,2.23,.23,2.39,.42,3.33,1.57,3.34,3.98,0,1.05,0,2.1,0,3.14,0,1.71,0,3.42,0,5.16h5.4Zm-5.39,1.96c-.16,3.76-.31,7.42-.46,11.08-.28,7.17-.55,14.35-.83,21.52-.17,4.3-.35,8.59-.5,12.89-.07,2.24,.98,3.83,2.87,4.45,3.32,1.1,6.2-1.02,6.09-4.53-.1-3.1-.28-6.2-.4-9.3-.4-10.72-.79-21.45-1.2-32.17-.05-1.3-.15-2.59-.23-3.93h-5.35Zm-94.3-.11c-.02,.45-.04,.78-.05,1.12-.25,6.31-.49,12.63-.74,18.94-.34,8.52-.7,17.03-1,25.55-.1,2.76,1.8,4.65,4.48,4.65,2.68,0,4.5-1.9,4.48-4.67,0-.41-.04-.82-.06-1.23-.2-5.01-.4-10.01-.59-15.02-.33-8.56-.64-17.11-.97-25.67-.05-1.22-.14-2.43-.21-3.67h-5.33Z"/>
  <path d="M55.51,93.44c-15.17,0-30.16-11.02-34.45-27.37-3.82-14.57,.31-27.08,11.51-37.05,7.67-6.83,16.89-9.65,27.11-9.19,17.5,.78,32.35,14.08,35.06,31.37,2.61,16.64-7.06,33.28-22.97,39.51-4.61,1.81-9.37,2.77-16.27,2.73Zm1.93-1.79c7.72-.1,14.78-2.28,21.12-6.74,14.65-10.29,19.11-30.16,10.17-45.43-10.16-17.34-32.65-23.1-49.91-12.78-13.82,8.26-20.33,24.35-15.94,39.4,4.4,15.07,18.57,25.55,34.56,25.55Z"/>
  <path d="M24.22,55.44c.84-11.73,6.26-20.69,16.34-26.76,3.03-1.82,6.31-3.04,9.78-3.76,.71-.15,1.44-.34,1.64,.56,.23,1.01-.65,1.1-1.34,1.25-6.16,1.34-11.48,4.23-15.87,8.73-5.5,5.64-8.4,12.44-8.74,20.32-.01,.3,.08,.66-.06,.88-.2,.33-.57,.79-.86,.78-.3,0-.72-.44-.86-.79-.15-.35-.03-.81-.03-1.22Z"/>
  <path d="M55.96,26.06c-.41,0-.86,.11-1.21-.03-.35-.14-.82-.51-.84-.8-.02-.3,.41-.84,.71-.9,.91-.16,1.85-.23,2.77-.15,.33,.03,.87,.57,.87,.87,0,.31-.49,.77-.86,.9-.42,.16-.95,.04-1.43,.04v.06Z"/>
</svg>